HIERARCHY
ROOT Elbow
{
	OFFSET	0.00	0.00	0.00
	CHANNELS 6 Xposition Yposition Zposition Zrotation Xrotation Yrotation
	JOINT L_Wrist
	{
		OFFSET	 0.208349	 0.000000	 0.000000
		CHANNELS 3 Zrotation Xrotation Yrotation
		JOINT L_index_Proximal
		{
			OFFSET	 0.093499	 0.010637	-0.002084
			CHANNELS 3 Zrotation Xrotation Yrotation
			JOINT L_index_b
			{
				OFFSET	 0.033152	 0.000000	 0.000000
				CHANNELS 3 Zrotation Xrotation Yrotation
				JOINT L_index_c
				{
					OFFSET	 0.018651	 0.000000	 0.000000
					CHANNELS 3 Zrotation Xrotation Yrotation
					End Site
					{
						OFFSET	 0.018651	 0.000000	 0.000000
					}
				}
			}
		}
		JOINT L_middle_Proximal
		{
			OFFSET	 0.090632	-0.006115	-0.003750
			CHANNELS 3 Zrotation Xrotation Yrotation
			JOINT L_middle_b
			{
				OFFSET	 0.037194	 0.000000	 0.000000
				CHANNELS 3 Zrotation Xrotation Yrotation
				JOINT L_middle_c
				{
					OFFSET	 0.021943	 0.000000	 0.000000
					CHANNELS 3 Zrotation Xrotation Yrotation
					End Site
					{
						OFFSET	 0.021943	 0.000000	 0.000000
					}
				}
			}
		}
		JOINT L_pinky_Proximal
		{
			OFFSET	 0.074015	-0.035449	-0.000417
			CHANNELS 3 Zrotation Xrotation Yrotation
			JOINT L_pinky_b
			{
				OFFSET	 0.027285	 0.000000	 0.000000
				CHANNELS 3 Zrotation Xrotation Yrotation
				JOINT L_pinky_c
				{
					OFFSET	 0.015093	 0.000000	 0.000000
					CHANNELS 3 Zrotation Xrotation Yrotation
					End Site
					{
						OFFSET	 0.015093	 0.000000	 0.000000
					}
				}
			}
		}
		JOINT L_ring_Proximal
		{
			OFFSET	 0.082801	-0.021859	-0.003750
			CHANNELS 3 Zrotation Xrotation Yrotation
			JOINT L_ring_b
			{
				OFFSET	 0.034478	 0.000000	 0.000000
				CHANNELS 3 Zrotation Xrotation Yrotation
				JOINT L_ring_c
				{
					OFFSET	 0.021377	 0.000000	 0.000000
					CHANNELS 3 Zrotation Xrotation Yrotation
					End Site
					{
						OFFSET	 0.021377	 0.000000	 0.000000
					}
				}
			}
		}
		JOINT L_thumb_Proximal
		{
			OFFSET	 0.030306	 0.018528	 0.004584
			CHANNELS 3 Zrotation Xrotation Yrotation
			JOINT L_thumb_a
			{
				OFFSET	 0.038520	 0.000000	 0.000000
				CHANNELS 3 Zrotation Xrotation Yrotation
				JOINT L_thumb_b
				{
					OFFSET	 0.026310	 0.000000	 0.000000
					CHANNELS 3 Zrotation Xrotation Yrotation
					End Site
					{
						OFFSET	 0.026310	 0.000000	 0.000000
					}
				}
			}
		}
	}
}
MOTION
Frames:    17
Frame Time: 0.01666667
-0.183451	-0.384377	 0.716901	-99.372210	 36.740550	-38.910350	 11.924700	-0.808597	-4.590993	 8.672548	-1.194262	-6.545351	-2.715555	 0.383121	-16.057870	-0.299659	 0.031205	-11.891710	-2.562021	-9.280824	-3.508778	 2.731271	-0.433664	-18.040650	-1.880597	 0.180515	-10.964870	-40.751400	-17.767000	-10.786750	 1.233423	-0.216316	-19.894150	 1.091758	-0.089456	-9.367551	-24.494170	-10.366300	-13.008680	 0.771095	-0.102541	-15.148850	-0.184200	 0.015938	-9.891220	 64.927330	 59.668880	-17.191500	-2.344768	-0.004638	 0.226975	 0.107177	-0.005370	-5.729129
-0.183483	-0.384345	 0.716845	-99.349830	 36.772360	-38.918860	 11.916930	-0.803462	-4.561752	 8.671835	-1.198417	-6.598484	-2.727764	 0.385685	-16.092820	-0.297952	 0.031087	-11.911770	-2.596423	-9.277845	-3.519536	 2.722995	-0.432787	-18.058630	-1.884721	 0.181230	-10.984450	-40.784580	-17.757390	-10.827960	 1.232967	-0.216595	-19.927150	 1.085183	-0.089177	-9.394730	-24.526460	-10.359350	-13.025200	 0.777724	-0.103533	-15.165160	-0.181008	 0.015670	-9.893934	 64.892090	 59.681300	-17.152870	-2.364912	-0.004293	 0.207839	 0.089858	-0.004512	-5.736433
-0.183549	-0.384254	 0.716837	-99.346600	 36.778080	-38.922450	 11.911610	-0.798734	-4.534869	 8.677545	-1.201786	-6.630856	-2.728041	 0.386095	-16.107870	-0.292787	 0.030555	-11.916770	-2.611578	-9.277997	-3.548109	 2.725497	-0.433729	-18.081000	-1.889184	 0.181723	-10.987900	-40.788050	-17.750850	-10.880370	 1.231409	-0.216642	-19.955290	 1.078406	-0.088886	-9.423965	-24.545870	-10.354320	-13.051690	 0.782056	-0.104252	-15.186710	-0.180014	 0.015579	-9.895281	 64.875410	 59.684020	-17.147770	-2.369345	-0.004705	 0.227525	 0.087381	-0.004349	-5.726377
-0.183457	-0.384250	 0.716776	-99.337460	 36.788720	-38.933320	 11.907750	-0.792168	-4.497496	 8.678615	-1.203786	-6.654105	-2.718469	 0.385175	-16.125940	-0.290405	 0.030308	-11.917180	-2.606097	-9.281462	-3.595580	 2.730316	-0.434925	-18.098670	-1.887586	 0.181899	-11.007780	-40.782700	-17.745300	-10.935320	 1.233841	-0.217288	-19.974530	 1.076302	-0.088791	-9.431889	-24.522420	-10.358130	-13.063970	 0.782755	-0.104356	-15.187180	-0.178759	 0.015482	-9.898275	 64.854860	 59.686120	-17.147000	-2.371525	-0.005827	 0.280191	 0.083562	-0.004139	-5.698414
-0.183464	-0.384230	 0.716755	-99.329640	 36.794310	-38.938170	 11.910480	-0.789533	-4.482533	 8.670779	-1.203669	-6.665718	-2.717412	 0.385195	-16.132960	-0.286296	 0.029890	-11.919520	-2.609878	-9.281261	-3.598900	 2.730344	-0.434936	-18.098950	-1.889496	 0.182097	-11.008960	-40.788150	-17.740610	-10.969030	 1.231791	-0.216993	-19.981220	 1.071877	-0.088509	-9.439561	-24.516060	-10.358090	-13.088630	 0.784380	-0.104599	-15.191350	-0.176445	 0.015294	-9.908008	 64.842610	 59.688340	-17.142380	-2.374254	-0.006044	 0.291349	 0.077950	-0.003864	-5.678961
-0.183442	-0.384227	 0.716709	-99.311290	 36.809640	-38.948970	 11.926690	-0.786499	-4.465234	 8.649390	-1.201949	-6.680189	-2.708589	 0.384124	-16.140580	-0.275548	 0.028777	-11.923970	-2.634073	-9.277992	-3.587392	 2.738823	-0.436764	-18.118230	-1.884811	 0.181879	-11.022720	-40.784320	-17.743210	-10.951360	 1.223365	-0.215256	-19.957370	 1.065672	-0.087719	-9.411835	-24.534740	-10.350980	-13.157970	 0.788406	-0.105370	-15.225010	-0.170042	 0.014784	-9.936021	 64.856640	 59.690230	-17.128860	-2.359018	-0.005142	 0.248937	 0.101824	-0.005072	-5.722860
-0.183436	-0.384227	 0.716707	-99.311770	 36.809390	-38.950350	 11.926670	-0.786494	-4.465236	 8.649403	-1.201959	-6.680182	-2.708583	 0.384120	-16.140580	-0.275555	 0.028783	-11.923980	-2.634058	-9.277998	-3.587390	 2.738829	-0.436764	-18.118220	-1.884812	 0.181879	-11.022720	-40.784300	-17.743220	-10.951360	 1.223367	-0.215245	-19.957380	 1.065674	-0.087732	-9.411823	-24.534720	-10.350990	-13.157960	 0.788402	-0.105376	-15.225010	-0.170034	 0.014783	-9.936018	 64.856640	 59.690250	-17.128850	-2.359015	-0.005150	 0.248955	 0.101820	-0.005065	-5.722865
-0.183357	-0.384212	 0.716698	-99.296570	 36.819330	-38.955280	 11.939810	-0.786837	-4.467172	 8.640418	-1.200163	-6.672955	-2.706517	 0.383701	-16.135240	-0.273990	 0.028609	-11.922600	-2.654441	-9.274506	-3.565434	 2.736533	-0.436417	-18.118810	-1.887263	 0.182220	-11.028960	-40.776560	-17.744770	-10.947820	 1.213377	-0.213408	-19.949870	 1.063861	-0.087489	-9.402221	-24.540590	-10.349040	-13.174060	 0.791710	-0.105816	-15.225150	-0.169913	 0.014761	-9.928044	 64.864260	 59.688300	-17.134100	-2.346121	-0.004618	 0.225373	 0.114502	-0.005755	-5.755221
-0.183338	-0.384194	 0.716701	-99.294720	 36.819250	-38.956630	 11.943540	-0.786554	-4.465518	 8.639748	-1.199992	-6.671834	-2.706099	 0.383587	-16.132410	-0.275269	 0.028743	-11.926440	-2.665567	-9.272896	-3.558203	 2.737169	-0.436779	-18.129640	-1.890046	 0.182644	-11.038380	-40.773220	-17.747080	-10.932010	 1.213506	-0.213289	-19.936680	 1.063825	-0.087413	-9.394140	-24.550330	-10.346580	-13.185640	 0.794515	-0.106226	-15.229570	-0.171305	 0.014888	-9.930262	 64.866910	 59.685530	-17.144750	-2.341561	-0.004276	 0.209918	 0.118030	-0.005956	-5.766740
-0.183334	-0.384134	 0.716710	-99.298350	 36.811810	-38.953480	 11.941400	-0.784527	-4.454045	 8.629654	-1.201207	-6.704007	-2.695208	 0.382155	-16.137350	-0.266986	 0.027940	-11.950270	-2.679481	-9.272816	-3.581295	 2.744950	-0.439083	-18.172820	-1.883133	 0.182515	-11.070670	-40.760380	-17.756350	-10.867900	 1.211018	-0.212447	-19.899400	 1.065440	-0.087439	-9.382957	-24.569930	-10.343860	-13.166020	 0.793824	-0.106057	-15.219380	-0.171540	 0.014907	-9.934067	 64.900810	 59.676170	-17.171050	-2.330816	-0.003842	 0.188879	 0.135762	-0.006825	-5.756865
-0.183332	-0.384098	 0.716711	-99.294100	 36.807790	-38.957190	 11.935050	-0.781671	-4.437784	 8.627131	-1.203235	-6.733767	-2.697548	 0.382711	-16.147150	-0.264469	 0.027712	-11.961070	-2.687916	-9.272407	-3.589427	 2.747406	-0.439764	-18.184260	-1.883459	 0.182549	-11.070650	-40.750740	-17.759120	-10.856180	 1.209342	-0.212161	-19.900160	 1.062342	-0.087221	-9.387219	-24.588500	-10.339290	-13.185940	 0.793357	-0.106060	-15.228360	-0.170883	 0.014854	-9.936714	 64.901980	 59.676980	-17.167210	-2.332210	-0.003850	 0.188284	 0.142010	-0.007104	-5.751935
-0.183337	-0.384052	 0.716690	-99.274890	 36.809160	-38.966830	 11.935280	-0.778877	-4.421894	 8.619805	-1.205591	-6.775702	-2.694283	 0.383049	-16.180230	-0.260839	 0.027364	-11.976840	-2.701558	-9.271749	-3.602568	 2.741628	-0.438781	-18.182190	-1.888029	 0.182821	-11.060770	-40.749750	-17.755420	-10.889630	 1.206781	-0.212032	-19.929460	 1.055185	-0.086923	-9.418182	-24.587520	-10.339910	-13.177720	 0.794091	-0.106086	-15.218320	-0.169118	 0.014693	-9.931098	 64.896890	 59.677340	-17.167710	-2.336811	-0.004040	 0.197910	 0.137414	-0.006863	-5.727468
-0.183364	-0.384009	 0.716688	-99.269720	 36.807560	-38.968250	 11.935290	-0.778872	-4.421896	 8.619795	-1.205592	-6.775703	-2.694284	 0.383050	-16.180230	-0.260832	 0.027364	-11.976850	-2.701568	-9.271751	-3.602578	 2.741628	-0.438785	-18.182170	-1.888019	 0.182825	-11.060780	-40.749760	-17.755420	-10.889630	 1.206777	-0.212034	-19.929450	 1.055191	-0.086919	-9.418185	-24.587520	-10.339910	-13.177720	 0.794087	-0.106086	-15.218310	-0.169116	 0.014692	-9.931100	 64.896900	 59.677340	-17.167720	-2.336810	-0.004047	 0.197901	 0.137411	-0.006856	-5.727465
-0.183204	-0.384067	 0.716682	-99.225040	 36.850960	-39.002710	 11.941640	-0.770887	-4.376463	 8.633376	-1.212307	-6.836855	-2.691916	 0.383102	-16.196340	-0.251380	 0.026354	-11.970360	-2.686335	-9.277377	-3.669277	 2.754077	-0.441649	-18.217450	-1.883060	 0.182566	-11.074170	-40.742920	-17.744390	-10.994370	 1.211935	-0.213366	-19.970230	 1.064585	-0.087741	-9.421874	-24.545170	-10.347800	-13.181140	 0.788875	-0.105322	-15.208460	-0.162429	 0.014101	-9.923873	 64.775010	 59.715180	-17.054950	-2.358462	-0.004974	 0.241654	 0.116309	-0.005789	-5.697571
-0.183218	-0.384021	 0.716703	-99.219770	 36.853570	-39.007890	 11.943030	-0.768875	-4.364989	 8.634399	-1.215800	-6.878890	-2.682176	 0.382146	-16.214690	-0.245307	 0.025708	-11.965560	-2.686834	-9.278356	-3.686409	 2.756716	-0.442059	-18.217090	-1.880808	 0.182216	-11.066120	-40.733080	-17.743600	-11.013910	 1.216824	-0.214356	-19.980270	 1.074143	-0.088553	-9.425366	-24.546010	-10.347620	-13.181480	 0.791604	-0.105720	-15.212730	-0.159669	 0.013853	-9.918814	 64.741130	 59.723250	-17.033910	-2.367181	-0.005434	 0.262695	 0.123779	-0.006151	-5.682236
-0.183228	-0.383964	 0.716758	-99.215190	 36.855900	-39.013620	 11.944560	-0.766800	-4.353158	 8.646596	-1.220474	-6.916585	-2.678847	 0.381498	-16.207410	-0.236043	 0.024729	-11.956700	-2.681948	-9.280648	-3.715930	 2.761157	-0.442683	-18.213320	-1.874973	 0.181374	-11.049520	-40.715450	-17.745010	-11.024450	 1.219860	-0.214876	-19.978960	 1.078633	-0.088728	-9.404721	-24.545240	-10.346000	-13.215930	 0.792304	-0.105884	-15.223580	-0.155662	 0.013503	-9.911716	 64.657490	 59.748210	-16.960130	-2.385345	-0.006059	 0.291827	 0.136943	-0.006753	-5.632277
-0.183243	-0.383946	 0.716794	-99.218310	 36.857110	-39.015810	 11.946950	-0.766069	-4.349067	 8.646528	-1.220831	-6.921118	-2.681222	 0.381745	-16.203370	-0.235779	 0.024682	-11.954030	-2.685944	-9.280882	-3.726816	 2.764124	-0.443216	-18.215740	-1.868681	 0.180695	-11.045270	-40.705190	-17.747140	-11.019210	 1.221936	-0.215177	-19.973530	 1.081223	-0.088820	-9.391851	-24.545970	-10.345230	-13.228340	 0.796112	-0.106452	-15.231610	-0.153534	 0.013314	-9.910011	 64.634380	 59.754330	-16.942960	-2.384900	-0.006353	 0.304714	 0.141043	-0.006931	-5.619916
